<?xml version="1.0" encoding="UTF-8" standalone="no"?>
<!-- Uploaded to: SVG Repo, www.svgrepo.com, Generator: SVG Repo Mixer Tools -->

<svg
   fill="#ffffff"
   version="1.1"
   id="Layer_1"
   viewBox="0 0 800 800"
   xml:space="preserve"
   sodipodi:docname="global.svg"
   width="800"
   height="800"
   inkscape:version="1.3.2 (091e20e, 2023-11-25)"
   xmlns:inkscape="http://www.inkscape.org/namespaces/inkscape"
   xmlns:sodipodi="http://sodipodi.sourceforge.net/DTD/sodipodi-0.dtd"
   xmlns="http://www.w3.org/2000/svg"
   xmlns:svg="http://www.w3.org/2000/svg"><defs
   id="defs1" /><sodipodi:namedview
   id="namedview1"
   pagecolor="#ffffff"
   bordercolor="#000000"
   borderopacity="0.25"
   inkscape:showpageshadow="2"
   inkscape:pageopacity="0.0"
   inkscape:pagecheckerboard="0"
   inkscape:deskcolor="#d1d1d1"
   inkscape:zoom="1"
   inkscape:cx="201"
   inkscape:cy="282"
   inkscape:window-width="2560"
   inkscape:window-height="1313"
   inkscape:window-x="0"
   inkscape:window-y="25"
   inkscape:window-maximized="1"
   inkscape:current-layer="Layer_1" />
<path
   id="world--community--grid_1_"
   d="m 234.72342,731.4351 c -44.2094,0 -85.76467,-17.22579 -117.01569,-48.47681 C 86.430688,651.70727 69.230917,610.12598 69.230917,565.9426 c 0,-44.20939 17.225791,-85.76466 48.476813,-117.0417 64.50565,-64.47963 169.52573,-64.47963 234.03137,0 64.50565,64.53166 64.50565,169.55175 0,234.05739 v 0 0 c -31.25102,31.225 -72.80629,48.47681 -117.01568,48.47681 z m 0,-312.19795 c -37.60011,0 -75.17419,14.31145 -103.77109,42.90835 -27.71218,27.71219 -42.986413,64.55769 -42.986413,103.77108 0,39.18738 15.274233,76.0589 42.986413,103.74507 27.71219,27.71218 64.55769,42.98641 103.77109,42.98641 39.18737,0 76.05889,-15.27423 103.77108,-42.98641 v 0 c 57.19379,-57.1938 57.19379,-150.29634 0,-207.54217 -28.5969,-28.5969 -66.197,-42.88233 -103.77108,-42.88233 z m 82.79829,346.46739 c -75.46042,0 -146.41923,-29.40354 -199.81398,-82.77227 -110.1722092,-110.17221 -110.1722092,-289.48177 0,-399.62796 53.36873,-53.36873 124.32754,-82.77227 199.81398,-82.77227 75.48644,0 146.41923,29.40354 199.81398,82.77227 110.17221,110.17221 110.17221,289.45575 0,399.62796 v 0 C 463.94094,736.301 393.00815,765.70454 317.52171,765.70454 Z m 0,-546.4375 c -70.46442,0 -136.71346,27.45198 -186.56938,77.28188 -102.886372,102.88637 -102.886372,270.27839 0,373.13875 49.85592,49.85591 116.10496,77.30789 186.56938,77.30789 70.46442,0 136.71346,-27.45198 186.54335,-77.30789 v 0 c 102.88638,-102.86036 102.88638,-270.25238 0,-373.13875 -49.82989,-49.8299 -116.07893,-77.28188 -186.54335,-77.28188 z M 400.32,800 C 293.55652,800 193.19417,758.41871 117.70773,682.93227 42.221292,607.44583 0.64,507.08348 0.64,400.32 0.64,293.55652 42.221292,193.19417 117.70773,117.70773 193.19417,42.221292 293.55652,0.64 400.32,0.64 507.08348,0.64 607.44583,42.221292 682.93227,117.70773 758.44473,193.19417 800,293.55652 800,400.32 800,507.08348 758.41871,607.44583 682.93227,682.93227 v 0 0 C 607.44583,758.44473 507.08348,800 400.32,800 Z m 0,-780.625 C 298.57854,19.375 202.89994,58.978708 130.95233,130.95233 59.004729,202.92596 19.375,298.57854 19.375,400.32 c 0,101.76748 39.603708,197.42006 111.57733,269.36767 71.94761,71.9476 167.62621,111.60335 269.36767,111.60335 101.76748,0 197.42006,-39.62973 269.36767,-111.60335 v 0 C 741.66129,597.74006 781.29102,502.1135 781.29102,400.32 781.29102,298.57854 741.66129,202.89994 669.68767,130.95233 597.74006,59.004729 502.08748,19.375 400.32,19.375 Z"
   style="stroke-width:26.0208" />
<rect
   id="_Transparent_Rectangle"
   style="fill:none"
   width="32"
   height="32"
   x="0"
   y="0" />
</svg>
