<svg xmlns="http://www.w3.org/2000/svg" viewBox="0 0 360.76 87.38"><path d="M109.18,69v.62a2.69,2.69,0,0,0-.52.21.82.82,0,0,0-.27.21,1.62,1.62,0,0,0-.16.43,4.72,4.72,0,0,0-.06.88V81.69h-2.35l-4.2-7.25a25.48,25.48,0,0,1-1.24-2.31h-.1c.08,1.34.1,2.75.1,4.23v3a4.42,4.42,0,0,0,.07,1,.81.81,0,0,0,.26.44,1.69,1.69,0,0,0,.67.3v.61H97.87v-.61a2,2,0,0,0,.54-.21.72.72,0,0,0,.3-.3,1.54,1.54,0,0,0,.11-.49,4.75,4.75,0,0,0,0-.72V71.3a4.94,4.94,0,0,0-.06-1,.87.87,0,0,0-.25-.45,1.54,1.54,0,0,0-.68-.31V69h3.77l3.3,5.74c.2.36.46.85.8,1.46s.62,1.19.87,1.74h.14c-.06-1.49-.1-3.11-.1-4.86V71.32a5,5,0,0,0,0-.88,1.08,1.08,0,0,0-.14-.41.67.67,0,0,0-.27-.23,2.63,2.63,0,0,0-.54-.21V69Z" style="fill:#4d4d4f"/><path d="M115.73,80.47l-.14,0a5.92,5.92,0,0,1-1.49,1.09,3.66,3.66,0,0,1-1.53.33,3,3,0,0,1-1.39-.3,2,2,0,0,1-.9-.81,2.34,2.34,0,0,1-.3-1.19,2.42,2.42,0,0,1,1.34-2.16,9.63,9.63,0,0,1,4.09-1V75.5a3.76,3.76,0,0,0-.19-1.35,1.38,1.38,0,0,0-.51-.65,1.33,1.33,0,0,0-.73-.2,1.89,1.89,0,0,0-.75.15,1.53,1.53,0,0,0-.56.57,3.46,3.46,0,0,0-.37,1.14h-1.76V73.48a15.32,15.32,0,0,1,1.43-.59,9.63,9.63,0,0,1,1.12-.35,9.5,9.5,0,0,1,1-.18,6.65,6.65,0,0,1,.88-.07,4.45,4.45,0,0,1,1.8.31,2,2,0,0,1,1,1,4.08,4.08,0,0,1,.34,1.84v3.64c0,.42,0,.73,0,1a2,2,0,0,0,.11.5.5.5,0,0,0,.14.26.55.55,0,0,0,.24.15,1.62,1.62,0,0,0,.5.17v.61h-3.47Zm-.31-3.18a3.82,3.82,0,0,0-2.14.55,1.68,1.68,0,0,0-.7,1.47,1.14,1.14,0,0,0,.33.87,1.15,1.15,0,0,0,.87.3,1.59,1.59,0,0,0,.81-.22,1.7,1.7,0,0,0,.61-.61,1.57,1.57,0,0,0,.22-.81Z" style="fill:#4d4d4f"/><path d="M126.26,80.58a6.5,6.5,0,0,1-1.49,1,3.67,3.67,0,0,1-1.42.28,2.6,2.6,0,0,1-2-.76,3.19,3.19,0,0,1-.7-2.26V73.61h-1.16V73a2.21,2.21,0,0,0,.84-.28,1.25,1.25,0,0,0,.42-.49,2.89,2.89,0,0,0,.23-.82,8.9,8.9,0,0,0,.14-1.26h2.22v2.33H126v1.16h-2.66v4.21a9.65,9.65,0,0,0,.1,1.56,1.31,1.31,0,0,0,.34.73.75.75,0,0,0,.57.23,2.23,2.23,0,0,0,.47,0,1.7,1.7,0,0,0,.42-.16,2.81,2.81,0,0,0,.49-.35Z" style="fill:#4d4d4f"/><path d="M126.33,81.08a1.42,1.42,0,0,0,.62-.32,1.12,1.12,0,0,0,.23-.54,7.68,7.68,0,0,0,.07-1.21V74.68a4.67,4.67,0,0,0,0-.74,1.32,1.32,0,0,0-.16-.45.7.7,0,0,0-.31-.25,3.61,3.61,0,0,0-.52-.16v-.63l2.56-.07h1.16V79c0,.35,0,.62,0,.81a2,2,0,0,0,0,.42,1.36,1.36,0,0,0,.08.28.68.68,0,0,0,.14.23.65.65,0,0,0,.23.19,3.26,3.26,0,0,0,.42.15v.61h-4.53Zm3.54-12.35V71H127.3V68.73Z" style="fill:#4d4d4f"/><path d="M136.31,81.84a5.49,5.49,0,0,1-2.36-.47,3.59,3.59,0,0,1-1.56-1.55,5.84,5.84,0,0,1-.55-2.69,6.4,6.4,0,0,1,.34-2.16,4.06,4.06,0,0,1,1-1.5,3.74,3.74,0,0,1,1.46-.88,5.79,5.79,0,0,1,1.85-.3,4.49,4.49,0,0,1,3.4,1.2A4.83,4.83,0,0,1,141,77a6,6,0,0,1-.56,2.72,3.7,3.7,0,0,1-1.63,1.62A5.55,5.55,0,0,1,136.31,81.84Zm-1.64-4.91a7.67,7.67,0,0,0,.44,3,1.43,1.43,0,0,0,1.33,1,1.3,1.3,0,0,0,.83-.25,1.63,1.63,0,0,0,.53-.73,4.21,4.21,0,0,0,.29-1.14,13.31,13.31,0,0,0,.07-1.49,7.77,7.77,0,0,0-.43-3,1.42,1.42,0,0,0-1.32-1,1.29,1.29,0,0,0-1,.4,2.44,2.44,0,0,0-.56,1.21A9.54,9.54,0,0,0,134.67,76.93Z" style="fill:#4d4d4f"/><path d="M152.24,81.69h-4.51v-.61a.93.93,0,0,0,.82-.85,8.32,8.32,0,0,0,.06-1.22V76.52c0-.44,0-.8,0-1.08s-.05-.52-.08-.69a1.36,1.36,0,0,0-.18-.45,1.57,1.57,0,0,0-.24-.32.81.81,0,0,0-.29-.16,1.35,1.35,0,0,0-.43-.06,1.4,1.4,0,0,0-.73.22,1.89,1.89,0,0,0-.65.61,1.37,1.37,0,0,0-.26.81V79a6.94,6.94,0,0,0,.06,1.22,1,1,0,0,0,.23.55,1.19,1.19,0,0,0,.61.31v.61h-4.5v-.61a1.22,1.22,0,0,0,.61-.32,1,1,0,0,0,.24-.54A8.06,8.06,0,0,0,143,79V75.18c0-.46,0-.8,0-1a1.42,1.42,0,0,0-.12-.52.67.67,0,0,0-.27-.33,2.12,2.12,0,0,0-.62-.22v-.63l2.55-.07h1.17l-.14,1.33.12,0a7.43,7.43,0,0,1,1-.81,3.65,3.65,0,0,1,.9-.46,3,3,0,0,1,1-.19,3.07,3.07,0,0,1,1.27.23,2.23,2.23,0,0,1,.82.63,2.75,2.75,0,0,1,.44,1,6,6,0,0,1,.14,1.41V79c0,.27,0,.53,0,.77a2.76,2.76,0,0,0,.06.57,1.65,1.65,0,0,0,.16.35.58.58,0,0,0,.28.22,1.83,1.83,0,0,0,.42.17Z" style="fill:#4d4d4f"/><path d="M158.61,80.47l-.14,0A6.1,6.1,0,0,1,157,81.51a3.64,3.64,0,0,1-1.54.33,3,3,0,0,1-1.39-.3,2.09,2.09,0,0,1-.9-.81,2.44,2.44,0,0,1-.3-1.19,2.41,2.41,0,0,1,1.34-2.16,9.68,9.68,0,0,1,4.1-1V75.5a4,4,0,0,0-.2-1.35,1.43,1.43,0,0,0-.5-.65,1.38,1.38,0,0,0-.73-.2,1.93,1.93,0,0,0-.75.15,1.48,1.48,0,0,0-.57.57,3.46,3.46,0,0,0-.37,1.14h-1.76V73.48a14.28,14.28,0,0,1,1.43-.59,10.26,10.26,0,0,1,1.12-.35,9.33,9.33,0,0,1,1-.18,6,6,0,0,1,.86-.07,4.38,4.38,0,0,1,1.8.31,2.07,2.07,0,0,1,1,1,4.4,4.4,0,0,1,.32,1.84v3.64c0,.42,0,.73,0,1a3.06,3.06,0,0,0,.08.5.73.73,0,0,0,.17.26.42.42,0,0,0,.23.15,1.86,1.86,0,0,0,.5.17v.61h-3.46Zm-.31-3.18a3.82,3.82,0,0,0-2.14.55,1.68,1.68,0,0,0-.7,1.47,1.13,1.13,0,0,0,.32.87,1.19,1.19,0,0,0,.88.3,1.62,1.62,0,0,0,1.41-.83,1.68,1.68,0,0,0,.23-.81Z" style="fill:#4d4d4f"/><path d="M166.25,79a6.66,6.66,0,0,0,.07,1.22,1,1,0,0,0,.22.54,1.34,1.34,0,0,0,.65.32v.61h-4.57v-.61a1.55,1.55,0,0,0,.44-.17.58.58,0,0,0,.24-.19,1.27,1.27,0,0,0,.16-.31,1.77,1.77,0,0,0,.08-.49c0-.22,0-.52,0-.92V71.73c0-.53,0-.92,0-1.18s0-.46-.05-.62a1.28,1.28,0,0,0-.15-.42.56.56,0,0,0-.28-.24,1.69,1.69,0,0,0-.56-.17v-.62l2.58-.12h1.16Z" style="fill:#4d4d4f"/><path d="M181.12,69.27V72h-1.27a3.15,3.15,0,0,0-.7-1.56,1.7,1.7,0,0,0-1.27-.49,2.4,2.4,0,0,0-2.23,1.41,9,9,0,0,0-.75,4.18,8.92,8.92,0,0,0,.68,3.92,2.22,2.22,0,0,0,2,1.33,2.42,2.42,0,0,0,1.12-.24,1.71,1.71,0,0,0,.68-.68,5,5,0,0,0,.45-1.29h1.27v2.82a18.9,18.9,0,0,1-1.87.36,14.34,14.34,0,0,1-1.76.11,6.33,6.33,0,0,1-3.17-.7,4.22,4.22,0,0,1-1.8-2.11,9.39,9.39,0,0,1-.58-3.57,8.42,8.42,0,0,1,.68-3.51,5,5,0,0,1,2-2.31,6,6,0,0,1,3.17-.81,12.45,12.45,0,0,1,1.7.1A11.19,11.19,0,0,1,181.12,69.27Z" style="fill:#4d4d4f"/><path d="M185.7,73.68a6.29,6.29,0,0,1,1.52-1.07,3.11,3.11,0,0,1,1.35-.32,2.82,2.82,0,0,1,1.59.39,2.15,2.15,0,0,1,.82,1.08,5.53,5.53,0,0,1,.26,1.84V79c0,.27,0,.53,0,.77a2.67,2.67,0,0,0,.07.57.86.86,0,0,0,.15.35.6.6,0,0,0,.27.22,2.14,2.14,0,0,0,.43.17v.61h-4.52v-.61a.89.89,0,0,0,.83-.85,8.32,8.32,0,0,0,.06-1.22V76.58a13.35,13.35,0,0,0-.06-1.45,2.09,2.09,0,0,0-.21-.8.91.91,0,0,0-.37-.42,1,1,0,0,0-.59-.15,1.47,1.47,0,0,0-.75.22,1.93,1.93,0,0,0-.64.6,1.42,1.42,0,0,0-.26.81V79c0,.35,0,.62,0,.81s0,.33,0,.42l.08.28a.88.88,0,0,0,.14.23,1,1,0,0,0,.24.19,3,3,0,0,0,.43.15v.61H182v-.61a1.75,1.75,0,0,0,.43-.17.69.69,0,0,0,.25-.19.82.82,0,0,0,.15-.31,1.43,1.43,0,0,0,.09-.49c0-.22,0-.52,0-.92V71.73c0-.53,0-.92,0-1.18a3.33,3.33,0,0,0-.07-.62,1,1,0,0,0-.14-.42.51.51,0,0,0-.26-.24,1.86,1.86,0,0,0-.57-.17v-.62l2.57-.12h1.17v5.31Z" style="fill:#4d4d4f"/><path d="M201.45,80a5.94,5.94,0,0,1-1.87,1.42,5.17,5.17,0,0,1-2.14.42,4.28,4.28,0,0,1-3.28-1.18,5.11,5.11,0,0,1-1.09-3.53,5.56,5.56,0,0,1,.57-2.61,3.84,3.84,0,0,1,1.59-1.65,5,5,0,0,1,2.41-.58,5.41,5.41,0,0,1,1.48.2,3.26,3.26,0,0,1,1.1.56,2.93,2.93,0,0,1,.76.84,4.56,4.56,0,0,1,.52,1.34,9.47,9.47,0,0,1,.2,1.87h-5.91a4.26,4.26,0,0,0,.6,2.48,2.11,2.11,0,0,0,1.81.8,3,3,0,0,0,1.28-.27,4.53,4.53,0,0,0,1.22-.93Zm-2.51-3.9a5.43,5.43,0,0,0-.37-2.13,1.13,1.13,0,0,0-1.09-.7,1.3,1.3,0,0,0-1.14.73,5,5,0,0,0-.5,2.1Z" style="fill:#4d4d4f"/><path d="M212.75,81.69h-4.53v-.61a1.19,1.19,0,0,0,.6-.31,1.07,1.07,0,0,0,.23-.54,8.32,8.32,0,0,0,.06-1.22V76.52q0-.66,0-1.08a4.88,4.88,0,0,0-.08-.69,1.36,1.36,0,0,0-.18-.45,1.28,1.28,0,0,0-.24-.32.9.9,0,0,0-.29-.16,1.27,1.27,0,0,0-.43-.06,1.41,1.41,0,0,0-.74.22,2,2,0,0,0-.64.61,1.45,1.45,0,0,0-.27.81V79a7.74,7.74,0,0,0,.07,1.22,1.06,1.06,0,0,0,.22.55,1.27,1.27,0,0,0,.62.31v.61h-4.5v-.61a1.22,1.22,0,0,0,.61-.32,1,1,0,0,0,.23-.54,8.06,8.06,0,0,0,.06-1.21V75.18c0-.46,0-.8,0-1a1.71,1.71,0,0,0-.1-.52.8.8,0,0,0-.27-.33,2.18,2.18,0,0,0-.64-.22v-.63l2.57-.07h1.15l-.12,1.33.1,0a8.88,8.88,0,0,1,1-.81,3.6,3.6,0,0,1,.92-.46,2.78,2.78,0,0,1,1-.19,3.22,3.22,0,0,1,1.28.23,2,2,0,0,1,.8.63,2.47,2.47,0,0,1,.45,1,6,6,0,0,1,.14,1.41V79c0,.27,0,.53,0,.77a2.21,2.21,0,0,0,.06.57,2.44,2.44,0,0,0,.15.35.76.76,0,0,0,.28.22,2.24,2.24,0,0,0,.44.17Z" style="fill:#4d4d4f"/><path d="M222.6,73.71,221,73.52l0,.11a1.82,1.82,0,0,1,.43.71,2.85,2.85,0,0,1,.18,1.07,3.05,3.05,0,0,1-1,2.47,4.34,4.34,0,0,1-2.9.84,5.68,5.68,0,0,1-1.5-.17,1.25,1.25,0,0,0-.47.9.73.73,0,0,0,.12.43.79.79,0,0,0,.41.23,2.65,2.65,0,0,0,.78.08h2.31a3.79,3.79,0,0,1,2.33.6,2.25,2.25,0,0,1,.78,1.89,2.75,2.75,0,0,1-.56,1.72,3.75,3.75,0,0,1-1.63,1.09,7.38,7.38,0,0,1-2.49.37,16.28,16.28,0,0,1-1.92-.09,5.34,5.34,0,0,1-1.45-.34,2.15,2.15,0,0,1-.93-.68,1.66,1.66,0,0,1-.33-1.08,1.55,1.55,0,0,1,.33-1,2.53,2.53,0,0,1,.94-.77,1.92,1.92,0,0,1-.58-.64,2.17,2.17,0,0,1-.17-.89,2.12,2.12,0,0,1,.17-.83,2.54,2.54,0,0,1,.5-.68,8.47,8.47,0,0,1,.78-.7A2.84,2.84,0,0,1,214,77.12a3.44,3.44,0,0,1-.35-1.56,3.29,3.29,0,0,1,.31-1.5,2.75,2.75,0,0,1,.85-1,3.53,3.53,0,0,1,1.29-.57,6.18,6.18,0,0,1,2.42-.14l.72.1h3.36ZM216,82.29a2.17,2.17,0,0,0-.5.56,1.55,1.55,0,0,0-.17.71,1.07,1.07,0,0,0,.57,1,4,4,0,0,0,1.86.32,3.19,3.19,0,0,0,1.76-.39,1.23,1.23,0,0,0,.62-1.09,1.11,1.11,0,0,0-.11-.54.82.82,0,0,0-.43-.38,2.5,2.5,0,0,0-.93-.15h-1.59C216.58,82.32,216.25,82.31,216,82.29Zm.35-6.85a3.76,3.76,0,0,0,.32,1.75,1.12,1.12,0,0,0,1,.56,1.08,1.08,0,0,0,1-.53,3,3,0,0,0,.34-1.61,3.87,3.87,0,0,0-.32-1.75,1.07,1.07,0,0,0-1-.6,1.12,1.12,0,0,0-1,.54A3.32,3.32,0,0,0,216.32,75.44Z" style="fill:#4d4d4f"/><path d="M237.1,79.21c.24.37.45.67.6.89s.32.39.44.52a1.34,1.34,0,0,0,.37.28,1.86,1.86,0,0,0,.48.18v.61h-5.05v-.61a.72.72,0,0,0,.42-.17.33.33,0,0,0,.13-.28,1,1,0,0,0-.05-.29,3.44,3.44,0,0,0-.2-.42l-.64-1-1.43-2.2a6.16,6.16,0,0,0-.46-.63,1.2,1.2,0,0,0-.37-.32,1.49,1.49,0,0,0-.53-.09h-.18v3.69c0,.22,0,.42,0,.61a2.16,2.16,0,0,0,.08.45.68.68,0,0,0,.17.3.55.55,0,0,0,.28.2,2.22,2.22,0,0,0,.46.17v.61h-4.89v-.61a2.82,2.82,0,0,0,.55-.2.79.79,0,0,0,.3-.3,1.53,1.53,0,0,0,.12-.48q0-.3,0-.75v-8c0-.3,0-.53,0-.74a1.48,1.48,0,0,0-.11-.48.86.86,0,0,0-.3-.3,2.2,2.2,0,0,0-.56-.21V69h4.89v.62a1.66,1.66,0,0,0-.57.23.8.8,0,0,0-.27.28,1.28,1.28,0,0,0-.13.43,5.5,5.5,0,0,0,0,.79v3.32h.2a2.11,2.11,0,0,0,.68-.09,1.62,1.62,0,0,0,.51-.34c.17-.16.51-.53,1-1.13s.87-1,1.1-1.36a4.92,4.92,0,0,0,.46-.8,1.39,1.39,0,0,0,.12-.63.58.58,0,0,0-.21-.5,1,1,0,0,0-.62-.2V69h4.76v.63a2.63,2.63,0,0,0-.6.2,5.61,5.61,0,0,0-.58.43,7.82,7.82,0,0,0-.83.86l-2.79,3.13Z" style="fill:#4d4d4f"/><path d="M238.49,72.45h3.62v5.17a12.58,12.58,0,0,0,.06,1.4,2,2,0,0,0,.22.79.88.88,0,0,0,.38.42,1.06,1.06,0,0,0,.58.15,1.66,1.66,0,0,0,.73-.21,2.09,2.09,0,0,0,.65-.61,1.4,1.4,0,0,0,.26-.82v-3.6c0-.45,0-.79,0-1a1.66,1.66,0,0,0-.12-.52.66.66,0,0,0-.24-.31,1.7,1.7,0,0,0-.55-.24v-.61h3.63V79c0,.48,0,.81,0,1a1.73,1.73,0,0,0,.12.53.9.9,0,0,0,.26.32,2.07,2.07,0,0,0,.63.21v.63l-2.53.09h-1.14l.09-1.34-.11,0a6.41,6.41,0,0,1-1.54,1.1,3.14,3.14,0,0,1-1.38.33,2.87,2.87,0,0,1-1.57-.37,2,2,0,0,1-.86-1.08,5.53,5.53,0,0,1-.26-1.84V75.14c0-.34,0-.61,0-.8s0-.34,0-.43a1.14,1.14,0,0,0-.22-.52,1.25,1.25,0,0,0-.24-.18,2,2,0,0,0-.42-.15Z" style="fill:#4d4d4f"/><path d="M259.68,81.69h-4.52v-.61a1.24,1.24,0,0,0,.6-.31,1.06,1.06,0,0,0,.22-.54,7.93,7.93,0,0,0,.07-1.22V76.52q0-.66,0-1.08a3.63,3.63,0,0,0-.09-.69,1.37,1.37,0,0,0-.17-.45,1.57,1.57,0,0,0-.24-.32,1,1,0,0,0-.3-.16,1.21,1.21,0,0,0-.42-.06,1.49,1.49,0,0,0-.75.22,1.92,1.92,0,0,0-.63.61,1.37,1.37,0,0,0-.26.81V79a10.46,10.46,0,0,0,.05,1.22,1.07,1.07,0,0,0,.23.55,1.28,1.28,0,0,0,.61.31v.61h-4.5v-.61a1.26,1.26,0,0,0,.62-.32,1.12,1.12,0,0,0,.23-.54,6.88,6.88,0,0,0,.06-1.21V75.18c0-.46,0-.8,0-1a1.69,1.69,0,0,0-.11-.52.8.8,0,0,0-.27-.33,2.21,2.21,0,0,0-.63-.22v-.63l2.55-.07h1.18L253,73.71l.11,0a8.09,8.09,0,0,1,1-.81,3.54,3.54,0,0,1,.91-.46,2.87,2.87,0,0,1,1-.19,3,3,0,0,1,1.27.23,2.08,2.08,0,0,1,.82.63,2.92,2.92,0,0,1,.44,1,6.57,6.57,0,0,1,.13,1.41V79c0,.27,0,.53,0,.77a2.1,2.1,0,0,0,.08.57.66.66,0,0,0,.15.35.63.63,0,0,0,.26.22,2.24,2.24,0,0,0,.44.17Z" style="fill:#4d4d4f"/><path d="M269.54,73.71,268,73.52l0,.11a2.09,2.09,0,0,1,.43.71,2.86,2.86,0,0,1,.17,1.07,3.11,3.11,0,0,1-1,2.47,4.36,4.36,0,0,1-2.9.84,5.79,5.79,0,0,1-1.52-.17,1.23,1.23,0,0,0-.45.9.67.67,0,0,0,.11.43.76.76,0,0,0,.4.23,2.73,2.73,0,0,0,.79.08h2.3a3.79,3.79,0,0,1,2.34.6,2.24,2.24,0,0,1,.77,1.89,2.75,2.75,0,0,1-.56,1.72,3.71,3.71,0,0,1-1.62,1.09,7.42,7.42,0,0,1-2.49.37,16.07,16.07,0,0,1-1.92-.09,5.43,5.43,0,0,1-1.45-.34,2.18,2.18,0,0,1-.94-.68,1.66,1.66,0,0,1-.33-1.08,1.55,1.55,0,0,1,.33-1,2.8,2.8,0,0,1,.94-.77,1.89,1.89,0,0,1-.57-.64,2.17,2.17,0,0,1-.17-.89,2,2,0,0,1,.18-.83,2.51,2.51,0,0,1,.49-.68,6.45,6.45,0,0,1,.78-.7,2.74,2.74,0,0,1-1.1-1.06,3.21,3.21,0,0,1-.37-1.56,3.29,3.29,0,0,1,.31-1.5,2.69,2.69,0,0,1,.86-1,3.48,3.48,0,0,1,1.28-.57,6.26,6.26,0,0,1,1.6-.2,6.9,6.9,0,0,1,.84.06l.71.1h3.36Zm-6.62,8.58a1.77,1.77,0,0,0-.51.56,1.43,1.43,0,0,0-.17.71,1,1,0,0,0,.58,1,3.9,3.9,0,0,0,1.85.32,3.29,3.29,0,0,0,1.78-.39,1.23,1.23,0,0,0,.6-1.09,1.41,1.41,0,0,0-.1-.54.88.88,0,0,0-.44-.38,2.5,2.5,0,0,0-.93-.15H264C263.52,82.32,263.17,82.31,262.92,82.29Zm.33-6.85a3.62,3.62,0,0,0,.33,1.75,1.11,1.11,0,0,0,1,.56,1.07,1.07,0,0,0,1-.53,3,3,0,0,0,.34-1.61,3.48,3.48,0,0,0-.34-1.75,1,1,0,0,0-1-.6,1.11,1.11,0,0,0-1,.54A3.2,3.2,0,0,0,263.25,75.44Z" style="fill:#4d4d4f"/><path d="M281.88,71.32a4.25,4.25,0,0,0-.07-1,.69.69,0,0,0-.24-.45,1.6,1.6,0,0,0-.68-.31V69H285v.62a2.48,2.48,0,0,0-.54.2.72.72,0,0,0-.3.3,1.14,1.14,0,0,0-.12.49,3.9,3.9,0,0,0,0,.74v5.81a8.26,8.26,0,0,1-.18,1.94,3.65,3.65,0,0,1-.58,1.31,3,3,0,0,1-1,.85,4.25,4.25,0,0,1-1.31.47,9.09,9.09,0,0,1-1.63.14,8,8,0,0,1-2.24-.27,3.42,3.42,0,0,1-2.34-2.19,6.37,6.37,0,0,1-.27-2v-6c0-.3,0-.53,0-.74a1.45,1.45,0,0,0-.13-.48.75.75,0,0,0-.31-.3,1.86,1.86,0,0,0-.55-.21V69h4.89v.62a2,2,0,0,0-.55.22,1,1,0,0,0-.29.28,1.55,1.55,0,0,0-.12.44,5,5,0,0,0-.05.79v6.15a7.81,7.81,0,0,0,.11,1.34,2.55,2.55,0,0,0,.34,1,1.55,1.55,0,0,0,.68.66,2.31,2.31,0,0,0,1.13.25,2.2,2.2,0,0,0,1.41-.39,2,2,0,0,0,.66-1.07,8.49,8.49,0,0,0,.19-2Z" style="fill:#4d4d4f"/><path d="M296.08,81.69h-4.54v-.61a1.28,1.28,0,0,0,.61-.31,1.17,1.17,0,0,0,.23-.54,8.75,8.75,0,0,0,.05-1.22V76.52c0-.44,0-.8,0-1.08s-.06-.52-.09-.69a1.36,1.36,0,0,0-.18-.45,1.08,1.08,0,0,0-.24-.32.9.9,0,0,0-.29-.16,1.31,1.31,0,0,0-.43-.06,1.46,1.46,0,0,0-.74.22,1.86,1.86,0,0,0-.64.61,1.45,1.45,0,0,0-.27.81V79a7.74,7.74,0,0,0,.07,1.22.93.93,0,0,0,.23.55,1.24,1.24,0,0,0,.6.31v.61H286v-.61a1.42,1.42,0,0,0,.62-.32,1.12,1.12,0,0,0,.23-.54,9.74,9.74,0,0,0,.06-1.21V75.18c0-.46,0-.8,0-1a1.45,1.45,0,0,0-.1-.52.69.69,0,0,0-.28-.33,1.9,1.9,0,0,0-.63-.22v-.63l2.56-.07h1.16l-.13,1.33.12,0a8.09,8.09,0,0,1,1-.81,4,4,0,0,1,.92-.46,2.85,2.85,0,0,1,1-.19,3.08,3.08,0,0,1,1.26.23,2.23,2.23,0,0,1,.82.63,2.75,2.75,0,0,1,.44,1,5.92,5.92,0,0,1,.15,1.41V79c0,.27,0,.53,0,.77a2.76,2.76,0,0,0,.06.57.87.87,0,0,0,.16.35.6.6,0,0,0,.27.22,1.68,1.68,0,0,0,.44.17Z" style="fill:#4d4d4f"/><path d="M296.92,81.08a1.37,1.37,0,0,0,.62-.32,1.13,1.13,0,0,0,.24-.54,8.06,8.06,0,0,0,.06-1.21V74.68a4.67,4.67,0,0,0,0-.74,1.59,1.59,0,0,0-.14-.45.94.94,0,0,0-.34-.25,3,3,0,0,0-.5-.16v-.63l2.56-.07h1.16V79c0,.35,0,.62,0,.81a3.13,3.13,0,0,0,0,.42,2.55,2.55,0,0,0,.08.28.68.68,0,0,0,.14.23.69.69,0,0,0,.24.19l.41.15v.61h-4.53Zm3.53-12.35V71H297.9V68.73Z" style="fill:#4d4d4f"/><path d="M305.91,72.45v.61a1.48,1.48,0,0,0-.64.26.6.6,0,0,0-.21.5A3.79,3.79,0,0,0,305.3,75l1.35,4.07,1.48-3.56a8.4,8.4,0,0,0,.27-.8,2.08,2.08,0,0,0,.09-.65,1,1,0,0,0-.21-.66,1.09,1.09,0,0,0-.64-.32v-.61h3.62v.63a1.43,1.43,0,0,0-.43.2,2.38,2.38,0,0,0-.31.32,6.62,6.62,0,0,0-.36.58q-.18.38-.54,1.17l-2.92,6.44H305l-2.47-7.1a5.39,5.39,0,0,0-.4-1,1.53,1.53,0,0,0-.35-.42,1.09,1.09,0,0,0-.46-.21v-.61Z" style="fill:#4d4d4f"/><path d="M319.36,80a6,6,0,0,1-1.88,1.42,5.19,5.19,0,0,1-2.15.42,4.28,4.28,0,0,1-3.26-1.18A5.11,5.11,0,0,1,311,77.13a5.56,5.56,0,0,1,.57-2.61,3.73,3.73,0,0,1,1.59-1.65,4.9,4.9,0,0,1,2.4-.58,5.67,5.67,0,0,1,1.5.2,3.51,3.51,0,0,1,1.09.56,2.73,2.73,0,0,1,.74.84,4.32,4.32,0,0,1,.53,1.34,7.18,7.18,0,0,1,.2,1.87h-5.89a4.12,4.12,0,0,0,.59,2.48,2.09,2.09,0,0,0,1.8.8,2.93,2.93,0,0,0,1.28-.27,4.3,4.3,0,0,0,1.24-.93Zm-2.51-3.9a5,5,0,0,0-.39-2.13,1.08,1.08,0,0,0-1.06-.7,1.26,1.26,0,0,0-1.13.73,4.71,4.71,0,0,0-.53,2.1Z" style="fill:#4d4d4f"/><path d="M324,73.78l.11,0a4,4,0,0,1,1.4-1.14,3.28,3.28,0,0,1,1.54-.38,7.21,7.21,0,0,1,1.2.13V75h-1.68a2.23,2.23,0,0,0-.41-.82.86.86,0,0,0-.67-.3A1,1,0,0,0,325,74a1.65,1.65,0,0,0-.46.35,1.5,1.5,0,0,0-.29.47,1.72,1.72,0,0,0-.13.48c0,.16,0,.4,0,.72v3a8,8,0,0,0,.07,1.23,1,1,0,0,0,.26.56,1.23,1.23,0,0,0,.67.29v.61h-4.6v-.61a1.22,1.22,0,0,0,.62-.32,1.13,1.13,0,0,0,.24-.54,9.74,9.74,0,0,0,.06-1.21V75.18a9.39,9.39,0,0,0,0-1,1.44,1.44,0,0,0-.11-.52.71.71,0,0,0-.26-.33,2.43,2.43,0,0,0-.64-.22v-.63l2.56-.07h1.16Z" style="fill:#4d4d4f"/><path d="M330,79.18a2.58,2.58,0,0,0,.7,1.27,2,2,0,0,0,1.3.42,1.49,1.49,0,0,0,1.06-.32,1.17,1.17,0,0,0,.37-.92,1.33,1.33,0,0,0-.16-.65,2,2,0,0,0-.55-.52,9.47,9.47,0,0,0-1.29-.64,8.83,8.83,0,0,1-1-.5,3.67,3.67,0,0,1-.78-.62,2.52,2.52,0,0,1-.54-.75,2.33,2.33,0,0,1-.19-.92,2.25,2.25,0,0,1,.48-1.46,2.94,2.94,0,0,1,1.39-.94,6,6,0,0,1,2.06-.34c.45,0,.88,0,1.32.07s1,.12,1.69.24v2.17h-1.22a4.53,4.53,0,0,0-.47-.92,1.51,1.51,0,0,0-.57-.46,1.82,1.82,0,0,0-.74-.12,1.64,1.64,0,0,0-1,.27,1,1,0,0,0-.37.79,1.28,1.28,0,0,0,.13.61,1.72,1.72,0,0,0,.46.49,7.89,7.89,0,0,0,1.29.64,6.35,6.35,0,0,1,1.44.76,2.55,2.55,0,0,1,.83.91,2.45,2.45,0,0,1,.29,1.2,2.67,2.67,0,0,1-.28,1.29,2.44,2.44,0,0,1-.77.91,3.31,3.31,0,0,1-1.22.52,5.61,5.61,0,0,1-1.54.18,15.27,15.27,0,0,1-3.42-.44V79.18Z" style="fill:#4d4d4f"/><path d="M337,81.08a1.36,1.36,0,0,0,.63-.32,1.23,1.23,0,0,0,.24-.54,8.06,8.06,0,0,0,.06-1.21V74.68a4.67,4.67,0,0,0-.05-.74,1.14,1.14,0,0,0-.15-.45.83.83,0,0,0-.33-.25,2.2,2.2,0,0,0-.51-.16v-.63l2.57-.07h1.16V79c0,.35,0,.62,0,.81s0,.33,0,.42a.92.92,0,0,0,.09.28.46.46,0,0,0,.14.23.65.65,0,0,0,.23.19,2.43,2.43,0,0,0,.42.15v.61H337Zm3.54-12.35V71H338V68.73Z" style="fill:#4d4d4f"/><path d="M348.84,80.58a6.26,6.26,0,0,1-1.48,1,3.73,3.73,0,0,1-1.41.28,2.68,2.68,0,0,1-2.09-.76,3.33,3.33,0,0,1-.67-2.26V73.61H342V73a2.21,2.21,0,0,0,.84-.28,1.47,1.47,0,0,0,.43-.49,3.75,3.75,0,0,0,.23-.82,9.3,9.3,0,0,0,.12-1.26h2.24v2.33h2.65v1.16h-2.65v4.21a10.17,10.17,0,0,0,.08,1.56,1.47,1.47,0,0,0,.35.73.76.76,0,0,0,.58.23,2.29,2.29,0,0,0,.47,0,2.36,2.36,0,0,0,.43-.16,4.69,4.69,0,0,0,.47-.35Z" style="fill:#4d4d4f"/><path d="M353.6,82.11a12.78,12.78,0,0,1-1.14,2.12,4.18,4.18,0,0,1-1.15,1.15,2.94,2.94,0,0,1-1.55.38,4.59,4.59,0,0,1-1.3-.18V83.45h1.05a1.07,1.07,0,0,0,.31.59.72.72,0,0,0,.5.17A1.14,1.14,0,0,0,351,84a3.09,3.09,0,0,0,.64-.73,11.66,11.66,0,0,0,.87-1.6H352l-2.44-7a6,6,0,0,0-.41-1,1.24,1.24,0,0,0-.35-.42,1,1,0,0,0-.47-.21v-.61h4.66v.61a1.53,1.53,0,0,0-.65.26.59.59,0,0,0-.19.5,3.51,3.51,0,0,0,.24,1.16l1.32,4.07,1.49-3.56a6.48,6.48,0,0,0,.28-.8,2.08,2.08,0,0,0,.09-.65,1,1,0,0,0-.22-.66,1.09,1.09,0,0,0-.63-.32v-.61h3.62v.63a1.15,1.15,0,0,0-.43.2,1.94,1.94,0,0,0-.32.32,5.31,5.31,0,0,0-.34.58c-.13.25-.32.64-.56,1.17Z" style="fill:#4d4d4f"/><path d="M208.92,34.28c.83-.79-1.07-1.8-1.93-1.81a2.64,2.64,0,0,0-1.62.25c-.57.42-1.17.81-1.75,1.21-1.44,1.09-2.62,1.49-3,2.72-.15.47.22,2.79,1.09,2.4A29.21,29.21,0,0,0,208.92,34.28Z" style="fill:#4d4d4f"/><path d="M218.55,36.35a5,5,0,0,1-1.06-1.49c-.48-.77-1-1.51-1.47-2.3a7.12,7.12,0,0,1-1.13-3.27,8.18,8.18,0,0,1,1.53-4.42,16.73,16.73,0,0,1,1.27-2,33.14,33.14,0,0,1,4.27-4c1.12-.66,2.45-1.38,2.64-2.79a3.29,3.29,0,0,0-1.37-3,6.7,6.7,0,0,0-3.14-.71,4.32,4.32,0,0,0-2.23.13c-1.1.69,1.27,1.21,1.27,1.62,0,1.72-1.45,3.34-3,4.56A18.37,18.37,0,0,1,214.23,20a19,19,0,0,1-2.32,1.11c-.59.22-1.16.69-1.72.07a10.17,10.17,0,0,1-1.28-2.5c-.9-1.81-1.94-3.56-2.84-5.38a45.87,45.87,0,0,0-2.67-4.39l-3-4.81c-.24-.57-.77-1.08-1-1.69s-.08-.86-.74-.82c0,0-.3,0-.76.71a5.16,5.16,0,0,0-.65,1.87c-.06.42.65.49.92.81a51.1,51.1,0,0,1,4.37,5.82,42.9,42.9,0,0,1,4.84,10.34,1.91,1.91,0,0,1-.72,2.15,4.68,4.68,0,0,1-1,1c-.68.47-1.4.88-2.08,1.29-1.84,1.12-3.89,1.88-5.77,2.94a7.6,7.6,0,0,1-2.7,1.07,3.41,3.41,0,0,1-1.49-.14c-.26-.1-.82-.57-.87,0a20.62,20.62,0,0,1-.53,3c-.42,2.12,2.87,2.14,2.93,4.32a30.32,30.32,0,0,1-.67,6.71c-.29,1.48-.67,3-1.06,4.41-.11.41-.22,1.8-.78,1.76a2.81,2.81,0,0,1-1.65-.74c-.31-.26-.69-.84-1.16-.71s-.64,1-.49,1.45a8.14,8.14,0,0,0,1.29,2.15,5.53,5.53,0,0,0,1.26,1.58c.83.54,1.4.08,2.24-.39.56-.32,2.05-.39,1.74-1.54-.63-2.42.42-4.36,1-6.61a30.16,30.16,0,0,0,.72-5.77,22.07,22.07,0,0,0-.22-4.06,9.51,9.51,0,0,1,.28-3.83,1,1,0,0,1,.22-.46c1.24-.93,1.83-1.26,2.86-1.95,1.33-.88,2.84-1.52,4.11-2.26a29.19,29.19,0,0,1,2.6-1.5c.39-.2,1.8-.87,2.16-.65A.86.86,0,0,1,210,25a12.64,12.64,0,0,0,.51,1.58,27.14,27.14,0,0,0,1.18,2.85c.19.41.63.83.63,1.32a1.83,1.83,0,0,1-.42,1,2.58,2.58,0,0,1-.77.86c-.78.44-1.85,1.6-1.69,2.47a6.59,6.59,0,0,1-.84,4.47,12.78,12.78,0,0,1-2.94,3.07,11,11,0,0,1-2.82,1.95c-.85.42-1.75.76-2.65,1.11l-.94.37a1,1,0,0,0-.23,1.28,4.77,4.77,0,0,0,2.63,1.71c1,.39,2.32.76,3.3.13a6.65,6.65,0,0,0,1.49-1.63,19.55,19.55,0,0,0,1.5-2.25,48,48,0,0,0,2.41-4.67,34.11,34.11,0,0,0,2.06-4.92c.25-.86.39-2.36,1.66-2.13,1.05.19,1.87,2.26,2.62,3.3,0,0,.95,1.47.34,1.89a24,24,0,0,0-2,2.3,3.69,3.69,0,0,0-.86,3.3c.1.66.2,1.59.91,1.89.94.42,1.66-.54,2.08-1.23a11.92,11.92,0,0,0,1.41-2.75c.21-.69,1.16.84,1.16.84a78.25,78.25,0,0,0,6.1,6.48c1.77,1.33,3.35,3.89,5.8,4.08a3,3,0,0,0,1.19-.35,13.76,13.76,0,0,0-.33-3.61,7,7,0,0,0-.5-1.56,11.53,11.53,0,0,1-.33-1.59c-.15-1,.21-2,.07-2.94-.08-.53-.46-1.79-.91-.74a9.29,9.29,0,0,0-.61,2.37c-.06.39-.2.86-.25,1.3a2.14,2.14,0,0,0,.13,1.33c.12.26.25.46,0,.65a.6.6,0,0,1-.82,0,11.24,11.24,0,0,1-1.64-1.19,48.89,48.89,0,0,1-4.76-4.46c-1.17-1.26-2.72-2.3-1.9-4.27.29-.71.77-1.31,1.12-2,.66-1.28,1.44-2.54,2-3.84.21-.48.56-1.86-.45-1.38a8.33,8.33,0,0,0-1.82,1.31A7.6,7.6,0,0,0,220,35C219.8,35.31,219.13,36.7,218.55,36.35Zm-7.61-13.23a27.73,27.73,0,0,0,3.36-2,1.49,1.49,0,0,1,.68,2A4.68,4.68,0,0,1,213.19,25a1.43,1.43,0,0,1-1.19.29c-.41-.17-.49-.68-.61-1C211.36,24.19,210.91,23.15,210.94,23.12Z" style="fill:#4d4d4f"/><path d="M299.78,27.23a16.55,16.55,0,0,1,2.29-.83,22.17,22.17,0,0,0,4-1.4c1.54-.87-1.36-2.12-1.88-2.73s-.53-1.5-.92-2.19c-.27-.46-1-2-1.5-2.06a5.77,5.77,0,0,0-1.34,1.86c0,.14-.22,1.26-.22,1.26-.21.91-.4,1.84-.61,2.76-.14.69-.34,1.34-.54,2-.09.33-.53,1.26-.26,1.56s.51,0,.71-.09A.91.91,0,0,1,299.78,27.23Zm.33,22.19,0,0c1.86-.3,3.53-1.33,5.24-2a23.17,23.17,0,0,0,3.22-1.53,6,6,0,0,0,1.74-1.36c.84-1.08-1.16-2.59-1.91-3.09a9.19,9.19,0,0,0-1.47-.82,21.67,21.67,0,0,0-3.57-1.19,18.24,18.24,0,0,1-2.21-.68,11.71,11.71,0,0,0-4-.41c-1,0-1.43.66-1.74,1.53a18.73,18.73,0,0,1-1.63,3.26c-.63,1.09-1.26,2.19-1.95,3.22A8.35,8.35,0,0,1,287.28,50c-.81.25-2.85.49-3.59,0,.21.15,1.86-1,2.07-1.18a13.13,13.13,0,0,0,1.85-1.57,25.35,25.35,0,0,0,2.91-3.8c.4-.63.8-1.27,1.21-1.9.16-.24,2.17-3.33.79-2.91.45-.51,1.24-.62,1.58-1.31s1.5-3.26,1-3.78c-.34-.37-1.55.37-1.86.52-.88.43-1.7,1-2.61,1.34a8.17,8.17,0,0,1-2.89.61,7.08,7.08,0,0,1-1.66-.16A11.11,11.11,0,0,1,282.54,34c-1-.86-2.29-2.13-1.48-3.54.05-.09.33-.49.47-.25.24.47-.52.85-.14,1.22.18.19.35.4.54.58.4.4,1,.25,1.44.15.72-.14,1.44-.24,2.17-.41,1.43-.36,2.87-.74,4.31-1.16l2.43-.71c.93-.27,1.85-.54,2.76-.86a2.25,2.25,0,0,0,1.11-.58c.72-.93.65-2.37.78-3.48a35,35,0,0,1,1.72-8.38,10.09,10.09,0,0,1,1-2c1.63-2.4,2.8.32,3.65,1.75,0,0,2.82,6.38,7.6,7.91.4.12.88.51.69.9s-.79.31-1,.36a5.3,5.3,0,0,0-1.24.34,17.17,17.17,0,0,0-2,1.4c-.76.52-1.53,1-2.32,1.51-.46.28-.91.55-1.38.79-1.14.6-2.4.93-3.52,1.57l-.35.2c-1,.56-2.1.77-2.39,2-.22.87-.38,1.74-.57,2.61-.07.28-.13.57-.19.84-.14,1.57,1,1.16,2.37,1.07a20.43,20.43,0,0,1,8.4,1.61c1.88.92,4.64,2.33,5.67,4.26.58,1.13,1.13,2.47.17,3.4,0,0-3.66,2.94-15.75,4A5.66,5.66,0,0,1,300,47.67c.37.4-1.32,2,.23,1.74" style="fill:#4d4d4f"/><path d="M271.87,32.57c.17-2.21-.61-4.49-2.92-5a9,9,0,0,0-2.52-.28,1.3,1.3,0,0,0-.86.61c-1.71,2.63-3.75,6-5.51,8.55-.33.47-.66.93-1,1.39s-.5.62-.75.92a15.39,15.39,0,0,0-2,2.91,4,4,0,0,0-.48,1.68c0,1.18,3.23,2.52,4.1,2.59a11.38,11.38,0,0,0,8.29-2.55c2.57-2.26,3.32-5.94,3.64-9.2C271.87,33.64,271.82,33.11,271.87,32.57ZM250.92,51c-.42,0-.84-.47-1.38-1.07a2.83,2.83,0,0,1-.72-1.72c-.09-1.3,1.26-2.93,2-3.94,2.66-3.9,5.43-7.36,8.44-11a3.05,3.05,0,0,0,.89-1.65c0-.95-1.75-1.3-1.75-1.3a2.88,2.88,0,0,0-1.64-.08A20.73,20.73,0,0,0,251,33.32a22.71,22.71,0,0,0-5.25,4.47c-.52.64-1,1.34-1.44,2a14.12,14.12,0,0,1-2.79,3.4c-.59.46-1.59,1.29-2.37.91a6.17,6.17,0,0,1-1.23-.86,3.36,3.36,0,0,1-1-1.25c0-.07-.1-.16-.08-.24a19,19,0,0,1,1.41-3.9c.85-2,5.61-10.2,5.61-10.2a3.37,3.37,0,0,0,.58-2.55c-.15-.65-1.25-1.23-1.77-1.5s-2.89-1.14-1.47-2.06a2.85,2.85,0,0,1,2.16-.26c1.48.13,2.92.87,4.53.86.79,0,1.82-.68,2.32-.64s.4,0,.47.57a3.33,3.33,0,0,1,.09,1.12,2.27,2.27,0,0,1-.5,1c-.49.58-1.18,1-1.67,1.57s-1,1.27-1.52,1.91c-1.38,1.76-2.75,3.54-4,5.36a29.46,29.46,0,0,0-1.76,2.77c-.14.22-1.61,2.94-1.37,3.19s.81-.31,1-.51c2.79-3.61,7.32-5.91,10.67-7.54.64-.32,1.31-.61,2-.89,2-.87,4.07-1.62,6.1-2.47l1.67-.79a1.42,1.42,0,0,0,.82-.79s1.31-2.78,1.49-3.05c0,0,.55-.74,1,.31,0,0,.55,1.31.84,2.3,0,0,3.09-.79,5.08.28a6.3,6.3,0,0,1,1.77,1.72,11.85,11.85,0,0,1,2.37,7.12,21.15,21.15,0,0,1-.21,5.68,12.31,12.31,0,0,1-6.75,7.7,16.26,16.26,0,0,1-4.21,1.33s-6.35,1.13-8-2a5.57,5.57,0,0,1-.24-2.6,53.76,53.76,0,0,1-3.18,5.3A2.08,2.08,0,0,1,250.92,51Z" style="fill:#4d4d4f"/><path d="M134.9,12.83a1.48,1.48,0,0,1,.37,1.78,14.44,14.44,0,0,0-.23,2.8,106.09,106.09,0,0,0-.29,16.07c.16,2.8.23,5.59.38,8.38,0,.67.07,1.32.13,2A52.27,52.27,0,0,1,135.5,50c0,1-.87,8-2.9,7.33A7.29,7.29,0,0,1,131,55.55a1,1,0,0,1-.13-.16c-1.23-1.45-3.4-1.31-5-2.12-1.19-.59-3.88-2.08-3.51-3.78.16-.67,8.52,2.19,9.58-1.05.64-2,0-4.42-.11-6.45-.12-2.32-.19-4.65-.28-7s-.34-4.66-.4-7c-.07-2.66-.06-5.18,0-7.86s.44-4.45-.16-6.53c0,0-.82-2.15-1.92-2.63a2.45,2.45,0,0,0-1.75-.1c-.84.3-5.61,1.07-5.61,1.07a52.51,52.51,0,0,0-9.41,3c-.22.07-.43.17-.66.26a17.68,17.68,0,0,0-2.76,1.26,4.41,4.41,0,0,0-1,.88c-.11.15-.65,1.18-.73,1.2a10.1,10.1,0,0,1-4.31-.61c-.73-.28-1.48-.81-.85-1.59a10.61,10.61,0,0,1,3-1.6,83.45,83.45,0,0,1,14.94-4.42c2.3-.51,4.59-.91,6.92-1.21a10.05,10.05,0,0,0,2.55-.46c.86-.38,1.24-.15,1.88.5Z" style="fill:#4d4d4f"/><path d="M107.27,31.92c.77-1.24,3.23-6.61,3.23-6.61A7.21,7.21,0,0,1,112,22.66a11.56,11.56,0,0,1,1.57-1.19c.44-.43,1-1.1,1.36-.39a26,26,0,0,0,1.49,3.56c1.18,2.45,2.51,4.93,3.45,7.47-.81.8-2.05,1.34-2.9,2.3-1.43,1.64-10.48,8.47-10.48,8.47l-1.09.76c-.54.39-.24,1.09.15,1.47a4.42,4.42,0,0,0,.85.69,4.08,4.08,0,0,0,.79.35c1-.81,1.56-1.13,2.29-1.74a37.82,37.82,0,0,0,3.22-3.35c2.1-2.24,4.18-4.49,6.3-6.73.38-.41.93-1,1.61-.74a3.56,3.56,0,0,1,1.64,2.35c.07,1.94-1.94,4.89-3.51,6.32-.72.67-2.33,2.33-3.06,2.86a6,6,0,0,1-1.71.69c-1.49.44-2.93,1-4.39,1.53-1.94.73-4,1.3-5.61,2.62a17.74,17.74,0,0,0-1.45,1.11c-.24.43,1,1.07,1.21,1.12.88.14,1,.57,1.49,0s1.62-.49,2.31-.9S109,50,109.79,49.5a11.82,11.82,0,0,1,2.61-1.41c1.6-.47,3.16-1,4.76-1.45a46.07,46.07,0,0,1,5.11-1c1.34-.18,2.65-.46,4-.61,1-.1,2.35-.34,3.18.31-.43-4.21-4.11-6.85-4.11-6.85-.84-1-.53-1.7-.53-1.7a6.92,6.92,0,0,1,1-2.48c.37-.67.86-1.23,1.26-1.87a15.83,15.83,0,0,0,1.44-2.61c.16-.43.54-1.17.39-1.62-.06-.24-.3-.27-.51-.32a3.16,3.16,0,0,1-1.51-1.1c-.3-.41-.59-.91-1.12-1.06-1.58-.79-.54,1.22-.41,1.79a6,6,0,0,1,.08,2.19,7.79,7.79,0,0,1-.7,2.19c-.25.58-.39,1.18-.65,1.73a2.56,2.56,0,0,1-.45.81c-.38.32-.73-.33-.73-.33-2-4-3.86-8-5.7-12-.23-.52-.55-1-.73-1.6-.33-1,.71-1.12,1.1-1.83.49-.9-.55-1-1.23-.9-.92.16-.83-1-1.79-1.24a5.44,5.44,0,0,0-2.3.2c0,.39.35.51.57.71.57.49.26,1.36,0,1.94s-.53.82-1.23,1.11c-2.25.93-4.41,2.12-6.69,3,0,0-1.9.85-1.2,1.45a3.94,3.94,0,0,0,2.28.81,2.84,2.84,0,0,0,1.7-.39c.29-.15.58-.31.84-.47s.72-.37.72-.49a3.55,3.55,0,0,1-.08.47,19.47,19.47,0,0,1-.93,2.1c-.81,1.8-1.57,2.7-2.51,4.43a23.36,23.36,0,0,0-2.23,5.1A2.74,2.74,0,0,1,102,38.42s0,.78,1.2,1.63c.11.07.63.69.82.69.5,0,1-1,1.42-1.28,2.06-1.57,4.55-2.89,6-5.12A4,4,0,0,0,112,32.7c-.53-.29-2.09,1.11-2.34,1.36-1.52,1.12-3.47,3-4.15,2.26-.46-.5.37-1.75.6-2.22Zm11.82,12.24c-.15,0-.79.27-.71,0,0-.08.16-.14.23-.2a11.8,11.8,0,0,0,1.92-2.12c1-1,2.88-3.67,4.09-1.68a18.35,18.35,0,0,1,1.61,2.65c.22.6-1.25.64-1.53.66l-.59,0c-.73.07-1.47.12-2.22.21a21.17,21.17,0,0,0-2.5.35Z" style="fill:#4d4d4f"/><path d="M123.88,20.54A1.19,1.19,0,0,0,126,21c1.55-2.38-1.84-3.85-4-3.69-.08,0,0,.29,0,.31a2,2,0,0,0,.67.83,3.86,3.86,0,0,1,.75.81A4.39,4.39,0,0,1,123.88,20.54Z" style="fill:#4d4d4f"/><path d="M114.25,31.12c-.37.17-.47.08-.47.08-.23-.23-.14-.64-.15-.95s-.19-.54-.57-.67c-.61-.23-1.12-.64-1.7-.92s1-1,1.24-1.1a2.31,2.31,0,0,1,1.57.27c.74.34,2.85.7,2.11,1.92,0,.1-.13.36-.24.42s-.29-.09-.46-.06a2,2,0,0,0-.43.33A5.32,5.32,0,0,1,114.25,31.12Z" style="fill:#4d4d4f"/><path d="M101,48.35c.13.71.26,1.48.39,2.2,0,.19.08.37.11.56a4.94,4.94,0,0,1,.17,1.61c0,.67-1,2.58-1.65,2.83a1.76,1.76,0,0,1-1.46-1.28,24.65,24.65,0,0,0-1.46-3.65,3.1,3.1,0,0,0,.78-1.5,21.27,21.27,0,0,0,.35-3.64A68.33,68.33,0,0,0,98.14,37c-.09-1.47.71-2.74.82-4.16s1-1.43,1.19,0c0,0,0,.34.79,1.4a2.88,2.88,0,0,1,.74,2.62c-.19.57,0,.85.4,1.24-.83,0-1.12,1.09-1.24,1.69a33.63,33.63,0,0,0-.26,4.24A19.63,19.63,0,0,0,101,48.35Z" style="fill:#4d4d4f"/><path d="M329.23,26.74a8.47,8.47,0,0,0-.23-2.36c-.17-1.12-.34-2.23-.44-3.36a11.56,11.56,0,0,0-.53-3.3,5.85,5.85,0,0,0-1.74-2.53s-1-.45-1,2.41a18.78,18.78,0,0,0,.42,2.14c.1.9.33,1.84.44,2.75s.21,1.83.3,2.75a6,6,0,0,0,.29,1.85c.22.58.53,1.12.78,1.67a6.34,6.34,0,0,1,.29.87c.09.43,0,.89.2,1.28a1,1,0,0,0,1.14.33,1.08,1.08,0,0,0,.68-.43C328.68,30.4,329,27.64,329.23,26.74Z" style="fill:#4d4d4f"/><path d="M319.54,29.87a10.63,10.63,0,0,1,.15,2.58,9.37,9.37,0,0,1-.74,2.1c-.3.67-.55,1.38-.85,2.06l-.49,1.08a3.78,3.78,0,0,0-.62,1.87c.05.89.88,1.13,1.61.87a5.29,5.29,0,0,0,1.77-1.2,7.67,7.67,0,0,0,1.11-1.47c.51-.86-.14-.31-.23-1.08-.08-.58.47-1.27.45-1.93C321.68,30.93,319.54,29.87,319.54,29.87Z" style="fill:#4d4d4f"/><path d="M352,10.32c.2-.44.42-.57.19-1.1a5.34,5.34,0,0,0-3.26-2.86,2.34,2.34,0,0,0-.35-.13c-1.41.1-5.37,2.56-5.37,2.56-.74.46-.89,1.4-1.21,2.11s-.93.95-1.58,1.59c-.4.39-.28.85-1,.85-1,0-1.21-1-1.25-1.66a10,10,0,0,1,1.19-5c.7-1.23,2.09-1.41,3.26-2,.69-.35,1.4-.71,2.08-1.08a6.73,6.73,0,0,0,1.45-.78,1.91,1.91,0,0,0,.52-1.36c.05-1.11-.51-1.14-.51-1.14a7.69,7.69,0,0,1-1.36,1l-1,.6c-.48.27-3.61,2-3.61.63A4.24,4.24,0,0,0,339,.83c-.46-.36-.63-.26-1.11,0-.85.39-.56,1.07-.49,1.83a36.88,36.88,0,0,1-.14,5.15,40,40,0,0,1-.51,4.65c-.18,1-.71,2.1.43,2.72.67.35.41.58.17,1.19a18.91,18.91,0,0,0-1,6.77,6,6,0,0,0,.37,2.59,2.94,2.94,0,0,1,.44,1.9c-.08.27-1.21.68-1.45.79-.59.26-1.07.3-1.38-.34-.64-1.27,1.05-3.09-.59-4-.26-.15-.2-1.71-.19-2.08,0-1,0-1.93,0-2.89-.08-2.3,0-4.84-.89-7-.31-.7-.73-1.46-1.58-1.24-.21.05-.34.59-.34.93,0,.56,0,1.12,0,1.68,0,2.75,0,4.17.05,7a22.89,22.89,0,0,0,.74,5.54c.33.94,1.1,2.32.42,3.27-.44.58-1.61.86-1.91,1.54.5.34,1.13-.05,1.72-.08a2.27,2.27,0,0,1,1.07.23c.12,0,.5.31.66.23a1.81,1.81,0,0,0,.31-.92s0-.57,1.67-.95c1-.22,2-.42,3-.6a22,22,0,0,1,5.62-.2c.65.09.92.57,1.29,1.05A4.05,4.05,0,0,0,346.92,31s.81.35,1.62-.69a15.29,15.29,0,0,0,1-2.6,1.69,1.69,0,0,1,.45-.88,1.66,1.66,0,0,1,1.09-.21c1.2,0,3.2-.54,3.88.86a1.55,1.55,0,0,1-.24,1.65c-2,2.22-4.58,3.82-6.78,5.83a1,1,0,0,1-.51.27,4,4,0,0,1-.91-.1,3.07,3.07,0,0,0-.94.18,46.09,46.09,0,0,0-7.28,2.82,3.67,3.67,0,0,0-1,.81c-.18.32-.36.73.08.9a3.14,3.14,0,0,0,1.24.18,2.78,2.78,0,0,0,.71-.19,19.55,19.55,0,0,0,3.44-1.34c.63-.36,1.19.05.93.65a18.89,18.89,0,0,1-1.83,3.06c-.57.8-1,1.37-1.55,2.22-.38.66,0,1.55.22,2.19s.39,1.33.58,2c.12.34.12.73-.15.79s-1.06.17-1.32.19a10.3,10.3,0,0,0-4.74,2.09,3.3,3.3,0,0,0-1.36,3.5c.07.67.41,2.95,1.25,3.1,0-.55-.41-.91-.4-1.44a5.3,5.3,0,0,1,1.31-3.51C337,52,339.26,51.44,341,51.26c.61-.07,1.12-.17,1.74-.27,1-.15.74,2.3.71,2.79-.22,2.78-2.5,7.28-6.07,5.83-.39-.16-.2-.62-.69-.66a13.53,13.53,0,0,0-1.56,0A5,5,0,0,0,338,60.6,7.72,7.72,0,0,0,346.4,55c.22-1-.1-2,.19-3a1.75,1.75,0,0,1,2.22-1.26,46.09,46.09,0,0,1,7.91,2,5.46,5.46,0,0,0-1.48-2.92,3,3,0,0,0-1.55-.75,7.19,7.19,0,0,0-2,.5,10.44,10.44,0,0,1-3.82-.08,1.14,1.14,0,0,1-1-.87c-.35-1-.14-1.7-1-2.36a3.83,3.83,0,0,0-1.7-.63c-.8-.12-3.15-.06-2.11-1.47.46-.69.9-1.41,1.34-2.09,1-1.62,1.87-4,3.93-4.45.43-.09,1.17-.28,1-.86-.12-.35-.48-.69-.47-1.09s.47-.43.65-.53h0a17.15,17.15,0,0,1,1.88-1c.57-.3,1.11-.62,1.65-.94.39-.24.77-.49,1.17-.72,1.43-1,2.86-2,4.39-2.87.75-.39,1.67.12,2.3-.46.25-.22.54-.53.78-.77.54-.54-.63-1.45-.63-1.45-1.58-1.53-4.88-2.32-4.88-2.32-.33-.05-.65.27-.86.46a5.39,5.39,0,0,1-3.22.83c-1.23-.42-.93-2.17-.73-3.34q.51-3.1.93-6.23c.14-1,.28-2.06.4-3.09.06-.46.11-.91.16-1.36A6.61,6.61,0,0,1,352,10.32ZM339.74,23.49l-1.18.81s-.38.36-.55-.65c0,0-.3-5.62-.27-7.07,0,0,.2-1.1.94-1.15,0,0,1.18-.4,1.3.55,0,0-.6,4.44.13,6.29C340.11,22.27,340.33,23.19,339.74,23.49ZM347,28.17a8.59,8.59,0,0,1-1.75.07c-.67-.16-.44-.53-.17-.77s.56-.24,1.19-.58c0,0,1.09-.07,1.11.44A.76.76,0,0,1,347,28.17Zm.55-3.79c-.13.57-.44,1.73-1.12,1.9s-1.25-.51-1.89-.18a10.61,10.61,0,0,1-1.21.71,1.34,1.34,0,0,1-1.38-.54,1.86,1.86,0,0,1-.27-1.4,12.37,12.37,0,0,1,.43-1.56,8.78,8.78,0,0,0,.43-1.62,4.53,4.53,0,0,0,.06-.82c0-.3-.07-.59-.05-.88.13-1.28.65-3,2.27-2.35.36.13,1,.48,1,.94,0,1.25-1.65,2.37-.69,3.82C345.85,23.58,347.9,22.65,347.5,24.38Zm1.6-7.31a14.34,14.34,0,0,1-.49,3.45c-.43,1.2-2.15.63-2.12-.46a14.6,14.6,0,0,1,.39-2.14,3.56,3.56,0,0,1,1.64-1.76C348.92,16.05,349.07,16.46,349.1,17.07Zm.49-4.41c-.23,1.84-.74,2.59-2.66,2.8-.72.08-1.63-.31-2.2.28-.2.2-.22.59-.44.73s-1.12-.23-1.1-.46c.12-2-1.34-1.74-1.34-1.74-.35.06-.37-.36-.28-.83a4.64,4.64,0,0,1,.29-1.09,8.83,8.83,0,0,1,.43-1.22c.32-.76.86-.59.86-.59a1.16,1.16,0,0,0,.87-.13c.68-.41,1.43-.71,2.12-1.11s1.31-1.15,2.1-.9C349.42,9.27,349.74,11.36,349.59,12.66Z" style="fill:#4d4d4f"/><path d="M159.55,24.28c.9.8,2,1.42,3.07.67.69-.47.56-1.64.85-2.29a2.77,2.77,0,0,0-1.18-3.47,5.4,5.4,0,0,0-4.15-.85c-.93.12-2.73.34-3.14,1.36s1.64,1.95,2.2,2.33a10.26,10.26,0,0,1,1.22,1.08C158.74,23.45,159.12,23.88,159.55,24.28Z" style="fill:#4d4d4f"/><path d="M162.75,30.54c1-.24,2-.46,2.95-.64,2.49-.49,5-1,7.54-1.34,0,0,1.9-.07,2.29-1.07a7.68,7.68,0,0,0-1-1.17c-.83-.81-3.91-.4-3.91-.4-1.65-.12-9.41,2.42-9.41,2.42-3.14,1-6.36,1.89-9.49,3-1.43.52-3,.76-4.25,1.72,0,0-.74.6,1,.83a5.28,5.28,0,0,0,2.84.11C155.16,32.77,158.89,31.48,162.75,30.54Z" style="fill:#4d4d4f"/><path d="M171.38,44.06c1.82-.18,3.64-.32,5.46-.61a9.87,9.87,0,0,1,5,.73,4.08,4.08,0,0,1,2.21,2.69c-.21.71-1.07.79-1.7.75-1.48-.11-2.91-.23-4.42-.24a110.55,110.55,0,0,0-21.37,2.26c-3.27.77-7.8,1.72-7.8,1.72a26.65,26.65,0,0,1-6-1.18s1.66-1.38,10.06-2.64c2.33-.46,4.63-1,6.93-1.6.44-.1,1-.33,1.25-.39,3.1-.83,6.47-8.11,6.47-8.11,1.38-2.6.45-3.29.45-3.29-.86-1.14-.67-1.59-.67-1.59-.05-.73,2.11-.35,2.44-.26,0,0,3.76,1.29,2.25,4A29.18,29.18,0,0,1,164.48,45s-.4.42,1.18,0A36.08,36.08,0,0,1,171.38,44.06Z" style="fill:#4d4d4f"/><path d="M157.42,37.88a11.89,11.89,0,0,1,1.43,2.35,5.76,5.76,0,0,1,.47,1.38,1.79,1.79,0,0,1-.49,1.84,4.38,4.38,0,0,1-1.36,1.35,1.89,1.89,0,0,1-1.47.07,2,2,0,0,1-.67-1.31c0-.12,0-.24-.08-.36a23.85,23.85,0,0,1-.39-2.67c-.15-1-1.71-3.75-.69-4.56s2.56,1.06,3,1.64C157.27,37.7,157.35,37.79,157.42,37.88Z" style="fill:#4d4d4f"/><path d="M28.9,87.25H27.38V81.57h-1v-.9a1.86,1.86,0,0,0,1.56-.88h1Z" style="fill:#b7292f"/><path d="M36.84,83.29a5.48,5.48,0,0,1-.79,2.78,2.72,2.72,0,0,1-2.45,1.28,6.91,6.91,0,0,1-1.24-.15V85.91a6,6,0,0,0,1.24.19,1.37,1.37,0,0,0,1.14-.5,2,2,0,0,0,.38-1.21,1.22,1.22,0,0,1-.62.47,2.08,2.08,0,0,1-.79.18,2.26,2.26,0,0,1-1.8-.7,2.61,2.61,0,0,1-.62-1.87,2.84,2.84,0,0,1,.72-2,2.67,2.67,0,0,1,2-.75,2.66,2.66,0,0,1,2.1.78,3.57,3.57,0,0,1,.72,2.18v.65Zm-1.63-.93c0-1-.38-1.53-1.12-1.53S33,81.34,33,82.36s.37,1.54,1.12,1.54a1,1,0,0,0,.88-.5A2.13,2.13,0,0,0,35.21,82.36Z" style="fill:#b7292f"/><path d="M43,85.09a2.08,2.08,0,0,1-.78,1.71,2.81,2.81,0,0,1-1.83.58A2.75,2.75,0,0,1,37.72,86l1-.63a1.24,1.24,0,0,0,.61.63,1.81,1.81,0,0,0,.87.21,1.14,1.14,0,0,0,.88-.35A1.32,1.32,0,0,0,41.4,85a1.07,1.07,0,0,0-.31-.81,1.23,1.23,0,0,0-.85-.28h-.75V82.8h.79c.7,0,1-.32,1-1s-.29-1-.88-1a1,1,0,0,0-1,.56H38.1A1.92,1.92,0,0,1,39,80.09a2.58,2.58,0,0,1,1.49-.41,2.85,2.85,0,0,1,1.68.45,1.68,1.68,0,0,1,.74,1.49,1.77,1.77,0,0,1-.28,1,1.46,1.46,0,0,1-.87.6A1.81,1.81,0,0,1,43,85.09Z" style="fill:#b7292f"/><path d="M48,87.25H46.49V81.57h-1v-.9A1.87,1.87,0,0,0,47,79.79h1Z" style="fill:#b7292f"/><path d="M30.89,49.93c-1.66,2.23-4.57,2.61-4.32,3.43.59,2,7-.85,9.15-6.48.6-1.63,1.25-1.35,1.25-1.35s1.92.18-1.79,5.66c-.82,1.19-.16,1.53-.16,1.53s.84.5,2-1c2.89-3.7,2.27-6.38,3.24-6,1.81.78-1.59,6.47-.38,7,.88.38,1.7-.61,2.45-3.27.69-2.39.26-3.79,1.09-3.75,1.6.07-.1,7.16,2.92,7.09,1.25,0-1.21-6.88.69-7.3,0,0,.63-.2.86,1.69a14.57,14.57,0,0,0,.82,3.38c.33.9,1.59,3.39,2.86,2.74,1-.52-1.76-3.43-1.44-8.42,0,0,.19-2.25-1.88-2.48-1.12-.13-3.07.63-2.78-.46.23-.85,4-.91,3.6-2.87-.15-.75-1.36-.21-2.36.22s-2.22.38-2.32-.15.62-.73,1.53-1,2-.94,1.79-1.85c-.27-1.3-4.15,1.18-4.15-.54.14-.8,3-.79,2.4-2.41-.51-1.35-3,.91-7.45-.2-2.21-.54-1.71,1.33-1.71,1.33,1.12,1.74,4.48.12,4.06,1.74-.37,1.36-3.6.07-3.84,1.56-.3,1.84,4.26.36,4.74,1.9,1,3.3-.63,3.39-1.12,3.32-1.15-.17-.15-2.5-1.7-2.48-1.31,0-.08,2.77-1.84,2.58-1.42-.16.25-2.26-1.59-2.92-1.08-.38-2.23-.77-2.38-1.35-.21-.8,1.64-1.31,1.51-2.82s-6.45-4-7.45-2.34c-.85,1.38,1.2,1.75,1.2,1.75,1.95.44,3.89,1.08,2.19,2.5-2.56,2.15,3.06,2.92,3,4,0,.87-1.38.48-1.49.44-1.13-.41-1.94.17-2,.68-.11.88-.6.77-1.26.75s-2.17-.71-.34-1.48c.77-.32.78-.93.65-1.16-.44-.76-3.52-.85-3.52-.85s-1.13-.12-1.38.66.67,1.07.67,1.07c1.43.91.11,1.65-.14,1.76-.42.19-.85.37-.72,1s.54.79,1.34.85l2.63.15s.88,0,.52.94a6.19,6.19,0,0,1-2.72,3.12c-1.06.65-.08,1.33.78,1.18,0,0,2.14.15,4.76-4.85.56-1.05,1.25-.68,1.25-.68S34,45.78,30.89,49.93Z" style="fill:#b7292f"/><path d="M70.62,23.21c-4.64-5.21-7.84-5-7.84-5C59,17.76,53,23.53,50.25,26.32l-.4-2.16C58.92,16.23,57.42,12,57.42,12c-3.83-.17-8.28,7-10.42,10.82a11.69,11.69,0,0,0-1.93-.53c9.07-11.38,2.29-16.67,2.29-16.67C45.21,3.45,37.5.11,37.22,0h-.08C36.86.11,30.43,2.65,27,5.62c0,0-6.63,5.23,2.3,16.67a12,12,0,0,0-1.95.53C25.22,19,20.76,11.83,16.94,12c0,0-1.51,4.23,7.55,12.16l-.39,2.16c-2.69-2.79-8.78-8.56-12.53-8.11,0,0-3.2-.21-7.84,5a32.58,32.58,0,0,1-3.73,4H0a32.5,32.5,0,0,1,1.08,5.38C2.31,39.5,5.15,41,5.15,41c3.06,2.42,12.54.26,16.41-.77L21,43.07c-15.22.67-15.86,5.75-15.86,5.75s3.47,3.58,15.39-3.13l-.52,2.86C19.89,48.6,13.34,51,10.9,53c-3.61,2.91-1.32,8.6.49,11.82a58.89,58.89,0,0,1,2.5,5.51h0a32.38,32.38,0,0,1,5.44.74c6.9,1.08,9.17-.17,9.17-.17,5.22-1.59,4.66-8.63,4.07-12,1-.11,2-.18,2.91-.2-.71,3.23-1.69,10,1.67,13.27h0c3.36-3.28,2.38-10,1.67-13.27,1,0,1.94.09,2.92.2-.59,3.34-1.16,10.38,4,12,0,0,2.28,1.25,9.18.17a32.38,32.38,0,0,1,5.44-.74h0A56.91,56.91,0,0,1,63,64.79c1.81-3.22,4.15-8.83.5-11.82-2.44-2-9-4.37-9.16-4.42l-.51-2.86c11.91,6.71,15.38,3.13,15.38,3.13s-.64-5.08-15.86-5.75l-.52-2.85c3.87,1,13.35,3.19,16.42.77,0,0,2.84-1.49,4.07-8.36a31.45,31.45,0,0,1,1.08-5.38h0A32.9,32.9,0,0,1,70.62,23.21ZM41.37,24l0,.07a7.37,7.37,0,0,1-1.51.67L39,13.7a5.86,5.86,0,0,0,1.29-.5ZM37.15,10.48c2.54,0,3,1.45,3,1.45a5.71,5.71,0,0,1-5.93,0S34.61,10.46,37.15,10.48ZM38.73,25a10.15,10.15,0,0,1-3.1,0l.88-11.13a11.75,11.75,0,0,0,1.32,0ZM33,24,34.09,13.2a5.78,5.78,0,0,0,1.28.5l-.89,11.06A6.91,6.91,0,0,1,33,24.09Zm-2.31,0a8.45,8.45,0,0,0,6.51,2.56A8.63,8.63,0,0,0,43.69,24a10.85,10.85,0,0,1,4.05,1.17c-2,2.31-6.06,3.81-10.57,3.91-4.5-.1-8.54-1.6-10.55-3.91A10.79,10.79,0,0,1,30.66,24ZM54.44,59.63a52.23,52.23,0,0,0-34.53,0l6-32.87c3.81,4,15.3,6.34,22.53,0Z" style="fill:#b7292f"/></svg>