<svg xmlns="http://www.w3.org/2000/svg" viewBox="0 0 283.46 237.45"><path d="M264.4,19.09A65.73,65.73,0,0,0,152.2,65.57V171.43a65.73,65.73,0,1,0,131.45,0V65.57A66,66,0,0,0,264.4,19.09Zm-6.33,152.34h0a40.15,40.15,0,1,1-80.29,0h0V65.57a40.15,40.15,0,1,1,80.29,0Z" transform="translate(-0.19 0.22)"/><path d="M128.49,45.07C121.65,19.79,92.19-1.55,66.05-.16,39.89-1.55,10.43,19.79,3.6,45.07c-9.48,24.41,1.6,59.05,23.49,73.43-21.89,14.38-33,49-23.49,73.44,6.83,25.28,36.29,46.61,62.45,45.22,26.14,1.39,55.6-19.94,62.44-45.22,9.48-24.42-1.6-59.06-23.49-73.44C126.89,104.12,138,69.48,128.49,45.07Zm-22.3,126.47c.22,9.36-4,20.59-11.79,28.32s-19,12-28.35,11.72c-9.36.25-20.6-4-28.36-11.72s-12-19-11.79-28.32c-.27-9.35,3.94-20.6,11.65-28.38s18.94-12.07,28.29-11.87h.42c9.35-.2,20.57,4.1,28.29,11.87S106.46,162.19,106.19,171.54Zm-1.7-94.4c-3.17,10.5-11.08,19.58-19.44,23.79C76.91,105.58,65,107.17,54.48,104S34.9,92.93,30.68,84.57C26,76.44,24.44,64.5,27.6,54S38.68,34.41,47,30.2c8.13-4.65,20.07-6.24,30.58-3.07S97.2,38.2,101.41,46.56C106.06,54.69,107.65,66.63,104.49,77.14Z" transform="translate(-0.19 0.22)"/></svg>